<?xml version="1.0" encoding="utf-8"?>
<!-- Generator: Adobe Illustrator 24.0.0, SVG Export Plug-In . SVG Version: 6.00 Build 0)  -->
<svg version="1.1" id="Layer_1" xmlns="http://www.w3.org/2000/svg" xmlns:xlink="http://www.w3.org/1999/xlink" x="0px" y="0px"
	 viewBox="0 0 2834.6 2834.6" style="enable-background:new 0 0 2834.6 2834.6;" xml:space="preserve">
<style type="text/css">
	.st0{display:none;}
	.st1{fill:#FAFAFA;}
</style>
<g id="Layer_4" class="st0">
	
		<image style="display:inline;overflow:visible;enable-background:new    ;" width="703" height="447" xlink:href="B508E441.jpg"  transform="matrix(2.4826 0 0 2.4826 2978.4971 15.6317)">
	</image>
</g>
<g id="Layer_2_1_">
</g>
<g id="Layer_1_1_">
	<g>
		<g>
			<polygon class="st1" points="1289.6,1864.9 1289.6,1864.9 1054.6,2099.9 			"/>
			<polygon class="st1" points="1780.1,783.3 1629.3,933.9 1629.3,933.9 			"/>
			<polygon class="st1" points="757.5,1803 526.2,1571.5 526.2,1422 903.3,1044.9 1177.1,1044.9 1177.1,908.1 1177.1,771.3 
				1177.1,624.8 729.4,624.8 526.2,828 309.3,1044.9 154.4,1199.8 106.1,1248.1 106.1,1745.6 154.4,1793.8 460.4,2099.9 
				526.2,2165.5 619,2258.4 896.2,2258.4 1054.6,2099.9 1289.6,1864.9 1334,1820.5 1334,1226.3 			"/>
			<polygon class="st1" points="2680.2,1089.5 2374.1,783.3 2308.5,717.7 2215.7,624.8 1938.5,624.8 1780.1,783.3 1629.3,933.9 
				1629.3,933.9 1629.8,930.7 1500.5,1060 1500.5,1656.9 2077,1080.3 2308.5,1311.7 2308.5,1461.1 1931.2,1838.4 1794.4,1838.4 
				1657.6,1838.4 1657.6,2112.1 1657.6,2258.4 2105.3,2258.4 2206.8,2156.8 2308.5,2055.1 2525.4,1838.4 2680.2,1683.5 
				2728.6,1635.1 2728.6,1137.8 			"/>
		</g>
	</g>
</g>
<g id="Layer_3">
</g>
</svg>
