<?xml version="1.0" encoding="utf-8"?>
<!-- Generator: Adobe Illustrator 24.0.0, SVG Export Plug-In . SVG Version: 6.00 Build 0)  -->
<svg version="1.1" id="Layer_1" xmlns="http://www.w3.org/2000/svg" xmlns:xlink="http://www.w3.org/1999/xlink" x="0px" y="0px"
	 viewBox="0 0 1417.3 566.9" style="enable-background:new 0 0 1417.3 566.9;" xml:space="preserve">
<style type="text/css">
	.st0{fill:#FAFAFA;}
</style>
<g>
	<polygon class="st0" points="396.2,129.6 377.8,129.6 334.1,129.6 192.8,435.4 254.9,435.4 352.5,224.3 296.1,435.2 296.8,435.4 
		354.5,435.4 436.2,129.6 	"/>
	<polygon class="st0" points="842.9,129.6 773.1,129.6 703.3,225.3 737.9,129.6 677.9,129.6 658.8,182.5 627.4,269 567.1,435.4 
		627.1,435.4 655.7,356.6 681.1,435.4 740.4,435.4 703.4,320.8 	"/>
	<path class="st0" d="M63.9,435.4h2h40.3h0.7h41.1c11.3,0,21.5-7.1,25.3-17.8l4.1-11.2l9.9-27.4l5.3-14.7
		c5.7-15.7,3.8-33.2-5.2-47.3l-24-37.8l-0.5-0.7l-22.8-36c-3.6-5.7-4.4-12.6-2.3-19l8.6-25.4c2.5-7.3,9.3-12.2,17-12.2h26
		c3.1,0,5.2,3,4.3,5.9l-6.2,18.2h0.2h60l8.8-24.2h0h0.7v0h-0.7l16.5-45.5l0,0c1.9-5.3-2-10.9-7.6-10.9H170h-46.7
		c-7.7,0-14.5,4.9-17,12.2l-8.5,24.9l-2,5.8l-4.6,13.5l-10.4,30.6c-5.3,15.5-3.2,32.5,5.5,46.3l24.9,39.3l13.4,21
		c9,14.1,10.9,31.6,5.2,47.3l-1,2.6c-1.3,3.6-4.7,5.9-8.4,5.9h-29c-3.1,0-5.2-3-4.3-5.9l6.2-18.2h-0.2h-60L24.4,379L8.3,423.4
		c-2.1,5.9,2.2,12,8.4,12H63.9z"/>
	<g>
		<path class="st0" d="M483.8,340.7h2.7C485.7,340.7,484.8,340.7,483.8,340.7z"/>
		<path class="st0" d="M504.7,284.3h-4C500.7,284.3,502.2,284.5,504.7,284.3z"/>
		<path class="st0" d="M483.3,340.7h0.6l0,0C483.7,340.7,483.5,340.7,483.3,340.7z"/>
		<path class="st0" d="M483.3,340.7h-7.9C475.4,340.7,478.3,340.9,483.3,340.7z"/>
		<polygon class="st0" points="599.5,267.3 599.5,267.3 599.5,267.3 		"/>
		<path class="st0" d="M636.3,129.6h-3h-44h-44.4h-60l-3.6,10l-52.5,144.7l-20.5,56.4L374,435.4h60l34.3-94.7h7h7.9
			c0.2,0,0.4,0,0.6,0l0,0c1-0.1,1.9,0,2.7,0h26.2l0,0h-26.2c25.2,1.4,10.8,42.4,10.8,42.5l0,0l-18.9,52.2h60l18.5-51l10.8-29.7
			c8.4-28.6-7-40.9-14-43c15.2-6.6,33.9-18.8,45.7-44.4l0,0l29.4-81.2l4.5-12.3l11.6-31.9C647.1,135.9,642.7,129.6,636.3,129.6z
			 M546.3,248.3L546.3,248.3c-11.2,30.7-32.7,35.4-41.6,36h0c-2.5,0.2-4,0-4,0h-11.9l35.6-98.2h44.4L546.3,248.3z"/>
	</g>
	<polygon class="st0" points="1019.2,130.6 975.2,130.6 930.8,130.6 870.7,130.6 867.1,140.6 814.7,285.3 794.2,341.7 759.9,436.4 
		817.8,436.4 819.9,436.4 864.7,436.4 911.5,436.4 916,424.1 932,380 929.2,380 885.2,380 840.3,380 854.2,341.7 898.6,341.7 
		914.4,341.7 934.9,285.3 919.1,285.3 874.7,285.3 910.3,187 954.7,187 1001.5,187 1006,174.7 1021.9,130.6 	"/>
	<polygon class="st0" points="1410.4,130.6 1340.6,130.6 1270.8,226.3 1305.4,130.6 1245.4,130.6 1226.3,183.4 1194.9,269.9 
		1134.6,436.4 1194.6,436.4 1223.2,357.5 1248.6,436.4 1307.9,436.4 1270.9,321.8 	"/>
	<polygon class="st0" points="1156.9,130.6 1153.3,140.6 1101.9,282.2 1111.1,130.6 1051.1,130.6 1047.5,140.6 995,285.3 
		974.6,341.7 940.2,436.4 1000.3,436.4 1034.6,341.7 1048.2,304.1 1046,436.4 1092.5,436.4 1106,436.4 1140.4,341.7 1160.8,285.3 
		1196.4,187 1216.9,130.6 	"/>
</g>
</svg>
